<?xml version="1.0" encoding="UTF-8" standalone="no"?><!DOCTYPE svg PUBLIC "-//W3C//DTD SVG 1.1//EN" "http://www.w3.org/Graphics/SVG/1.1/DTD/svg11.dtd"><svg width="100%" height="100%" viewBox="0 0 177 38" version="1.1" xmlns="http://www.w3.org/2000/svg" xmlns:xlink="http://www.w3.org/1999/xlink" xml:space="preserve" xmlns:serif="http://www.serif.com/" style="fill-rule:evenodd;clip-rule:evenodd;stroke-linejoin:round;stroke-miterlimit:2;"><rect id="ArtBoard1" x="0" y="0" width="176.25" height="37.5" style="fill:none;"/><clipPath id="_clip1"><rect id="ArtBoard11" serif:id="ArtBoard1" x="0" y="0" width="176.25" height="37.5"/></clipPath><g clip-path="url(#_clip1)"><path id="Outer-Background" serif:id="Outer Background" d="M176.25,9.375l0,18.75c0,5.174 -4.201,9.375 -9.375,9.375l-157.5,0c-5.174,0 -9.375,-4.201 -9.375,-9.375l-0,-18.75c-0,-5.174 4.201,-9.375 9.375,-9.375l157.5,0c5.174,0 9.375,4.201 9.375,9.375Z"/><path id="Inner-Background" serif:id="Inner Background" d="M175.5,9.75l0,18c0,4.967 -4.033,9 -9,9l-156.75,-0c-4.967,-0 -9,-4.033 -9,-9l0,-18c0,-4.967 4.033,-9 9,-9l156.75,-0c4.967,-0 9,4.033 9,9Z" style="fill:#fff;"/><path d="M42.883,10.234c0,-0.886 0.655,-1.487 1.682,-1.487l4.913,-0c4.453,-0 7.481,2.452 7.481,6.055c-0,3.541 -3.001,6.17 -7.481,6.17l-0.681,0c-1.718,0 -2.603,0.885 -2.603,2.311l-0,4.036c-0,1.142 -0.655,1.859 -1.655,1.859c-1.001,0 -1.656,-0.717 -1.656,-1.859l0,-17.085Zm3.311,5.117c-0,1.797 0.912,2.655 2.656,2.655l0.425,0c2.452,0 4.258,-1 4.258,-3.195c-0,-2.196 -1.797,-3.196 -4.258,-3.196l-0.416,-0c-1.744,-0 -2.656,0.858 -2.656,2.656l-0,1.08l-0.009,-0Zm10.774,12.252c-0,0.938 0.655,1.567 1.655,1.567c0.655,-0 1.257,-0.425 1.602,-1.311l0.602,-1.602c0.487,-1.284 1.346,-1.886 2.284,-1.886l5.427,0c0.938,0 1.797,0.602 2.284,1.886l0.602,1.602c0.345,0.886 0.938,1.311 1.602,1.311c1.001,-0 1.656,-0.629 1.656,-1.567c-0,-0.257 -0.053,-0.576 -0.168,-0.886l-6.481,-16.855c-0.398,-1.027 -1.31,-1.54 -2.195,-1.54c-0.885,-0 -1.797,0.513 -2.195,1.54l-6.481,16.855c-0.141,0.319 -0.194,0.629 -0.194,0.886Zm6.312,-7.658c-0,-0.31 0.088,-0.602 0.23,-1.027l1.23,-3.399c0.23,-0.655 0.629,-0.974 1.089,-0.974c0.46,-0 0.859,0.31 1.089,0.974l1.231,3.399c0.141,0.425 0.23,0.717 0.23,1.027c-0,0.859 -0.487,1.461 -1.771,1.461l-1.54,-0c-1.302,-0 -1.788,-0.602 -1.788,-1.461Zm10.313,-9.649c-0,-0.912 0.655,-1.541 1.717,-1.541l13.138,0c1.053,0 1.717,0.629 1.717,1.541c0,0.912 -0.655,1.54 -1.717,1.54l-2.196,0c-1.744,0 -2.682,0.885 -2.682,2.913l-0,12.544c-0,1.168 -0.655,1.885 -1.682,1.885c-1.027,0 -1.682,-0.717 -1.682,-1.885l-0,-12.544c-0,-2.028 -0.939,-2.913 -2.682,-2.913l-2.196,0c-1.08,0 -1.735,-0.628 -1.735,-1.54Zm19.653,17.023c-0,1.142 0.655,1.859 1.655,1.859c1.001,0 1.656,-0.717 1.656,-1.859l-0,-4.541c-0,-1.284 0.743,-1.833 1.655,-1.833l0.23,0c0.602,0 1.204,0.372 1.567,0.912l4.338,6.374c0.398,0.602 0.912,0.939 1.567,0.939c0.859,-0 1.54,-0.718 1.54,-1.567c0,-0.346 -0.115,-0.717 -0.372,-1.089l-2.885,-4.055c-0.346,-0.487 -0.487,-0.885 -0.487,-1.23c-0,-0.717 0.628,-1.231 1.372,-1.771c1.345,-1 2.797,-2.31 2.797,-4.824c0,-3.515 -2.744,-5.887 -7.259,-5.887l-5.745,-0c-1.027,-0 -1.656,0.601 -1.656,1.487l0,17.085l0.027,0Zm3.311,-12.225l-0,-0.859c-0,-1.859 0.973,-2.629 2.452,-2.629l1.425,-0c2.452,-0 4.028,0.912 4.028,3.028c0,2.115 -1.655,3.08 -4.116,3.08l-1.346,0c-1.47,0.009 -2.443,-0.761 -2.443,-2.62Zm15.571,12.163l0,-17.023c0,-0.886 0.629,-1.487 1.656,-1.487l10.8,-0c1.027,-0 1.656,0.601 1.656,1.487c-0,0.885 -0.629,1.487 -1.656,1.487l-6.825,0c-1.346,0 -2.311,0.797 -2.311,2.311l0,0.628c0,1.514 0.974,2.311 2.311,2.311l5.285,-0c1.027,-0 1.655,0.602 1.655,1.487c0,0.885 -0.628,1.487 -1.655,1.487l-5.082,0c-1.345,0 -2.514,0.832 -2.514,2.514l0,0.797c0,1.682 1.169,2.514 2.514,2.514l6.631,0c1.027,0 1.655,0.602 1.655,1.487c0,0.886 -0.628,1.488 -1.655,1.488l-10.8,-0c-1.036,-0 -1.665,-0.602 -1.665,-1.488Zm16.077,-8.507c-0,-6.17 4.63,-10.428 10.056,-10.428c5.427,-0 10.057,4.258 10.057,10.428c0,6.17 -4.63,10.428 -10.057,10.428c-5.426,0 -10.056,-4.258 -10.056,-10.428Zm3.771,-0c0,4.338 2.567,7.109 6.285,7.109c3.71,-0 6.286,-2.771 6.286,-7.109c-0,-4.373 -2.567,-7.109 -6.286,-7.109c-3.709,-0.009 -6.285,2.736 -6.285,7.109Zm20.308,8.569c0,1.142 0.655,1.859 1.656,1.859c1,0 1.655,-0.717 1.655,-1.859l-0,-8.737c-0,-1.054 0.629,-1.567 1.284,-1.567c0.513,-0 0.938,0.283 1.257,0.797l5.479,9.171c0.744,1.257 1.426,2.195 2.824,2.195c1.346,0 2.311,-0.973 2.311,-2.54l0,-16.457c0,-1.142 -0.655,-1.859 -1.655,-1.859c-1.001,-0 -1.656,0.717 -1.656,1.859l0,8.737c0,1.054 -0.628,1.567 -1.284,1.567c-0.513,0 -0.947,-0.283 -1.257,-0.797l-5.479,-9.171c-0.744,-1.257 -1.426,-2.195 -2.824,-2.195c-1.346,-0 -2.311,0.973 -2.311,2.54l0,16.457Z" style="fill-rule:nonzero;"/><clipPath id="_clip2"><rect id="PATREON_SYMBOL_1_BLACK_RGB.svg" x="7.5" y="3.75" width="30" height="30"/></clipPath><g clip-path="url(#_clip2)"><path d="M36.196,12.762c-0.005,-3.83 -2.989,-6.97 -6.489,-8.102c-4.347,-1.407 -10.08,-1.203 -14.23,0.755c-5.031,2.374 -6.611,7.574 -6.67,12.76c-0.048,4.264 0.377,15.494 6.712,15.574c4.707,0.06 5.407,-6.005 7.585,-8.925c1.55,-2.078 3.545,-2.665 6,-3.273c4.221,-1.045 7.098,-4.376 7.092,-8.789Z" style="fill-rule:nonzero;"/></g></g></svg>